<svg width="679" height="67" viewBox="0 0 679 67" fill="none" xmlns="http://www.w3.org/2000/svg">
<path d="M63.9253 65H49.9321L44.3696 50.5288H18.9038L13.6455 65H0L24.814 1.29199H38.416L63.9253 65ZM40.2412 39.7949L31.4629 16.1543L22.8584 39.7949H40.2412ZM64.6919 65V1.29199H77.2075L103.282 43.8364V1.29199H115.232V65H102.326L76.6426 23.4551V65H64.6919ZM122.604 1.29199H146.115C151.416 1.29199 155.458 1.69759 158.239 2.50879C161.977 3.6097 165.178 5.56527 167.843 8.37549C170.509 11.1857 172.537 14.6333 173.927 18.7183C175.318 22.7743 176.013 27.7863 176.013 33.7544C176.013 38.9982 175.361 43.5177 174.058 47.313C172.464 51.9484 170.19 55.7002 167.235 58.5684C165.004 60.7412 161.991 62.436 158.196 63.6528C155.357 64.5509 151.561 65 146.81 65H122.604V1.29199ZM135.468 12.0693V54.2661H145.072C148.664 54.2661 151.257 54.0633 152.851 53.6577C154.936 53.1362 156.66 52.2526 158.022 51.0068C159.413 49.7611 160.542 47.7186 161.412 44.8794C162.281 42.0112 162.715 38.1146 162.715 33.1895C162.715 28.2643 162.281 24.4836 161.412 21.8472C160.542 19.2108 159.326 17.1538 157.761 15.6763C156.197 14.1987 154.212 13.1992 151.808 12.6777C150.011 12.2721 146.491 12.0693 141.248 12.0693H135.468ZM180.778 65V1.29199H207.852C214.66 1.29199 219.599 1.87142 222.67 3.03027C225.77 4.16016 228.247 6.18815 230.102 9.11426C231.956 12.0404 232.883 15.3866 232.883 19.1528C232.883 23.9331 231.478 27.8877 228.667 31.0166C225.857 34.1165 221.656 36.0721 216.065 36.8833C218.846 38.5057 221.135 40.2874 222.931 42.2285C224.756 44.1696 227.204 47.6172 230.275 52.5713L238.054 65H222.67L213.371 51.1372C210.068 46.1831 207.808 43.0687 206.591 41.7939C205.374 40.4902 204.085 39.6066 202.724 39.1431C201.362 38.6506 199.204 38.4043 196.248 38.4043H193.641V65H180.778ZM193.641 28.2354H203.158C209.329 28.2354 213.182 27.9746 214.718 27.4531C216.253 26.9316 217.456 26.0335 218.325 24.7588C219.194 23.484 219.628 21.8906 219.628 19.9785C219.628 17.8346 219.049 16.1108 217.89 14.8071C216.76 13.4744 215.152 12.6343 213.066 12.2866C212.023 12.1418 208.894 12.0693 203.68 12.0693H193.641V28.2354ZM238.821 65V1.29199H286.059V12.0693H251.684V26.1929H283.668V36.9268H251.684V54.2661H287.275V65H238.821ZM300.992 65L285.782 1.29199H298.95L308.554 45.0532L320.2 1.29199H335.497L346.665 45.792L356.443 1.29199H369.393L353.923 65H340.277L327.588 17.3711L314.942 65H300.992Z" fill="#FF0000"/>
<path d="M366.51 44.271L379.025 43.0542C379.779 47.255 381.3 50.3405 383.588 52.3105C385.906 54.2806 389.02 55.2656 392.932 55.2656C397.074 55.2656 400.189 54.3965 402.275 52.6582C404.39 50.891 405.447 48.834 405.447 46.4873C405.447 44.9808 404.998 43.7061 404.1 42.6631C403.231 41.5911 401.695 40.6641 399.494 39.8818C397.987 39.3604 394.554 38.4333 389.194 37.1006C382.299 35.3913 377.461 33.2909 374.68 30.7993C370.768 27.2938 368.813 23.0205 368.813 17.9795C368.813 14.7347 369.725 11.7072 371.551 8.89697C373.405 6.05778 376.056 3.89941 379.503 2.42188C382.98 0.944336 387.166 0.205566 392.062 0.205566C400.058 0.205566 406.07 1.95833 410.097 5.46387C414.153 8.9694 416.282 13.6483 416.485 19.5005L403.622 20.0654C403.071 16.7917 401.884 14.445 400.058 13.0254C398.262 11.5768 395.553 10.8525 391.932 10.8525C388.195 10.8525 385.269 11.6203 383.154 13.1558C381.792 14.1408 381.111 15.459 381.111 17.1104C381.111 18.6169 381.749 19.9061 383.023 20.978C384.646 22.3397 388.586 23.7593 394.844 25.2368C401.101 26.7144 405.722 28.2498 408.706 29.8433C411.719 31.4077 414.066 33.5661 415.746 36.3184C417.456 39.0417 418.31 42.4168 418.31 46.4438C418.31 50.0942 417.296 53.5129 415.268 56.6997C413.24 59.8866 410.372 62.2622 406.664 63.8267C402.956 65.3621 398.335 66.1299 392.801 66.1299C384.747 66.1299 378.562 64.2757 374.245 60.5674C369.928 56.8301 367.35 51.3979 366.51 44.271ZM431.94 65L416.73 1.29199H429.898L439.502 45.0532L451.148 1.29199H466.445L477.614 45.792L487.391 1.29199H500.342L484.871 65H471.225L458.536 17.3711L445.89 65H431.94ZM553.213 65H539.22L533.658 50.5288H508.192L502.933 65H489.288L514.102 1.29199H527.704L553.213 65ZM529.529 39.7949L520.751 16.1543L512.146 39.7949H529.529ZM553.458 65V1.29199H566.322V65H553.458ZM572.52 65V1.29199H585.036L611.11 43.8364V1.29199H623.061V65H610.154L584.471 23.4551V65H572.52ZM630.476 65V1.29199H677.714V12.0693H643.34V26.1929H675.324V36.9268H643.34V54.2661H678.931V65H630.476Z" fill="white"/>
</svg>
